<?xml version="1.0" encoding="UTF-8"?>
<svg  version="1.1" viewBox="0 0 752 752" xmlns="http://www.w3.org/2000/svg">
 <defs>
  <clipPath id="b">
   <path d="m536 221h76.789v77h-76.789z"/>
  </clipPath>
  <clipPath id="a">
   <path d="m139.21 287h147.79v167h-147.79z"/>
  </clipPath>
 </defs>
 <g clip-path="url(#b)">
  <path d="m557.29 293.64 1.5508-3.6562c3.6367-8.5664-0.375-18.5-8.9414-22.145-2.1094-0.89844-4.3242-1.3477-6.5977-1.3477-1.9961 0-3.9141 0.38672-5.7227 1.0352-1.9844-9.7305-0.19531-20.223 5.8594-29.059 11.871-17.309 35.52-21.727 52.828-9.8633 17.305 11.859 21.723 35.504 9.8633 52.816-10.977 16.02-32.039 20.969-48.84 12.219z"/>
 </g>
 <path d="m520.29 294.37-2.1719-7.3398c-2.1133-7.1211-8.7695-12.098-16.191-12.098-1.625 0-3.2344 0.23828-4.8047 0.69922-8.9297 2.6445-14.043 12.066-11.398 20.996l15.062 50.852c-3.9688 7.3828-7.5859 15.027-10.508 22.77 4.6914 3.2305 9.8008 7.2773 14.961 12.355 8.6523 8.5508 17.332 20.047 23.734 34.859 5.6602 13.051 9.4766 28.617 10.293 46.594l-14.266 2.5938 14.367 9.3711c-0.32422 12.031-1.9102 25.039-5.0078 39.09-2.1719 9.8555-10.906 16.57-20.598 16.57-1.5078 0-3.0391-0.16406-4.5703-0.5-11.383-2.5117-18.582-13.777-16.07-25.164 2.9102-13.184 4.0859-24.648 4.0859-34.59-0.003906-5.9375-0.42188-11.332-1.1523-16.254-1.6641 11.18-5.4844 22.742-12.312 33.703-9.6992 15.68-25.145 29.598-46.547 40.492-3.0742 1.5703-6.3555 2.3125-9.582 2.3125-7.6836 0-15.09-4.207-18.824-11.516-5.3047-10.383-1.1875-23.102 9.1953-28.402 15.996-8.207 24.742-16.926 29.879-25.156 5.0859-8.2578 6.9453-16.555 6.9844-25.488 0.019532-3.6055-0.33594-7.2891-0.94922-10.949l4.0977-8.5625 10.133-4.5078-13.512-15.766-9.0508 3.1602c-2.3008-4.8828-4.6172-8.9336-6.3086-11.668-0.86328-1.4023-1.5664-2.4648-2.0117-3.1289-0.22656-0.32812-0.38672-0.5625-0.47656-0.6875-0.011719-0.015625-0.023437-0.03125-0.03125-0.046875-0.77734-1.0625-1.4258-2.1758-1.9766-3.3164 8.1562-3.0312 14.984-9.2109 18.691-17.402 3.6523-8.0664 3.9453-17.066 0.82422-25.352-2.5234-6.707-7.0703-12.258-12.984-16.078 0.46094-1.1484 0.93359-2.2852 1.4141-3.4023 2.332-1.4688 4.6406-3.2109 6.9414-5.1523l9.1914-0.25-3.5703-4.8672c4.4688-4.3477 8.9336-9.25 13.48-14.258l3.125-3.4336c14.867-16.277 29.645-30.891 46.934-30.891 3.2539 0 6.5781 0.56641 9.8906 1.625 1.2656 1.4414 2.3086 3.0586 3.125 4.8242-1.7148 1.5898-3.125 3.5352-4.0742 5.7773z"/>
 <path d="m505.23 350c-0.29297-0.625-0.55078-1.2617-0.74609-1.9219l-15.523-52.414c-2.1211-7.1562 1.9609-14.676 9.1172-16.793s14.676 1.9648 16.793 9.1211l3.3359 11.27-3.2852 7.7422 2.0938 3.707 13.844-32.605c2.918-6.8711 10.852-10.074 17.719-7.1562 6.8672 2.9141 10.07 10.848 7.1523 17.715l-21.961 51.719-3.8594 9.0977c-0.25 0.59766-0.55078 1.1641-0.87891 1.7188-0.0625 0.10547-0.125 0.21484-0.19531 0.32031-0.31641 0.5-0.66016 0.98047-1.0391 1.4336-0.054687 0.0625-0.11328 0.125-0.17188 0.1875-0.34375 0.39453-0.71094 0.76562-1.0977 1.1211-0.089844 0.082031-0.17578 0.16406-0.26953 0.24219-0.44531 0.38672-0.91406 0.74219-1.4102 1.0703-0.042968 0.027344-0.09375 0.050781-0.13672 0.082031-0.44922 0.28516-0.91797 0.53906-1.4023 0.77344-0.12109 0.058594-0.24609 0.11719-0.36719 0.17188-0.51562 0.23047-1.043 0.4375-1.5977 0.60156-0.019531 0.003907-0.039062 0.011719-0.054688 0.019531-0.03125 0.007813-0.0625 0.011719-0.09375 0.019532-0.59766 0.17188-1.207 0.3125-1.8242 0.39844-0.28516 0.039063-0.56641 0.039063-0.84766 0.0625-0.35938 0.03125-0.71875 0.078125-1.082 0.078125-0.64844 0-1.2969-0.0625-1.9453-0.16016-0.125-0.019531-0.24609-0.035156-0.37109-0.054688-0.60938-0.10547-1.2188-0.25-1.8203-0.44922-0.11328-0.035156-0.22266-0.082032-0.33594-0.125-0.26562-0.09375-0.53906-0.17969-0.80469-0.29297-0.23828-0.10156-0.46094-0.22266-0.6875-0.33594-0.11719-0.058594-0.23828-0.10938-0.35156-0.17188-0.55469-0.29297-1.082-0.625-1.582-0.98437-0.09375-0.066407-0.18359-0.14063-0.27344-0.21094-0.48047-0.36328-0.9375-0.75391-1.3594-1.1758-0.039062-0.039063-0.082031-0.074219-0.12109-0.11328-0.44141-0.44922-0.83594-0.9375-1.207-1.4375-0.085937-0.11719-0.17188-0.23828-0.25781-0.35938-0.14844-0.21484-0.28906-0.43359-0.42188-0.65234-0.1875-0.30859-0.36719-0.625-0.52734-0.94531-0.046875-0.09375-0.09375-0.20312-0.14453-0.3125z"/>
 <path d="m434.95 323.62c-3.7461-1.418-7.6484-2.1797-11.66-2.1797-2.2734 0-4.5078 0.25-6.6836 0.69922-4.457-2.6133-9.0312-7.0312-13.781-13.695-8.7695-12.301-12.855-23.582-13.223-33.59 0.82422-1.7969 1.5547-3.6484 2.125-5.5781 1.2344-4.1484 1.8281-8.3867 1.8008-12.594 11.047-21.746 43.871-33.316 80.797-29.875 25.805 2.4062 54.613 15.203 56.828 36.613-41.375-14.918-67.848 49.324-96.203 60.199zm-26.777-66.41c36.316-25.336 90.363-16.047 90.363-16.047s-57.426-25.332-90.363 16.047z"/>
 <path d="m229.05 469.57c-9.4102 19.41-26.223 37.965-52.031 50.211-2.3516 1.125-4.8359 1.6562-7.2773 1.6562-6.3008 0-12.348-3.5391-15.246-9.6055-4.0312-8.4141-0.46875-18.5 7.9414-22.527 2.7031-1.3047 5.2148-2.6719 7.582-4.082l9.8438 13.125-0.52734-19.551c9.0469-7.2305 15.059-15.414 19.379-24.098 1.6484-3.3516 3.0156-6.8047 4.1406-10.305 9.707 3.7344 20.512 6.9727 32.449 9.3789-1.6406 5.2539-3.6875 10.539-6.2539 15.797z"/>
 <path d="m273.83 473.89c0.03125 15.691-4.1406 32.879-13.938 50.211-3.1016 5.5078-8.832 8.6055-14.734 8.6055-2.8047 0-5.6523-0.69922-8.2695-2.1758-8.125-4.582-11.004-14.879-6.4258-23.008 7.1562-12.777 9.5586-23.746 9.5859-33.633 0.023437-7.0117-1.3008-13.66-3.4375-19.832 10.98 2.1445 22.91 3.5742 35.816 4.0195 0.87891 5.0352 1.3945 10.301 1.4023 15.812z"/>
 <g clip-path="url(#a)">
  <path d="m273.47 353.83 11.383 6.0977c-2.6016 9.5391-4.7109 19.699-5.7539 30.535l-6.8984-4.7109-4.5039 14.641-8.4453 5.0664 19.562 11.035c0.87891 11.551 3.1602 23.754 7.3477 36.629-1.6914 0.035156-3.3633 0.050781-5.0234 0.050781-87.82-0.011719-131.47-46.016-140.93-57.312-0.39844-0.47656-0.73438-0.88672-1.0039-1.2305 1.1133-2.0586 3.418-6.25 6.7266-11.98 3.8398-6.6641 9.0391-15.402 15.234-25.188l17.012 1.5469-9.7422-12.785c4.2109-6.375 8.7617-13 13.566-19.668 6.4219 6.4219 12.984 9.582 19.898 9.582 14.727 0 27.805-14.402 41.648-29.652l3.125-3.4336c5.2227-5.7188 10.434-11.211 15.746-15.957l3.0508 54.191c0.28906 5.2539 3.3594 10.059 7.9961 12.543z"/>
 </g>
 <path d="m295.22 328.74-2.4961-44.34c-0.26562-4.6992-2.6562-8.793-6.1992-11.395 2.3203-0.53125 4.6758-0.84375 7.082-0.84375 3.6836 0 7.4531 0.6875 11.199 2.0352l0.53516 0.19141c1.1602 3.3633 1.6797 6.8906 1.707 10.664 0.042969 12.047-5.5117 26.605-11.828 43.688z"/>
 <path d="m314.04 246.2c-5.9727 20.113 5.4922 41.262 25.609 47.23 20.113 5.9727 41.262-5.4883 47.234-25.602 5.9688-20.113-5.4961-41.258-25.609-47.23-20.117-5.9727-41.266 5.4883-47.234 25.602"/>
 <path d="m275.07 350.85c-3.6211-1.9375-5.9922-5.6562-6.2227-9.7578l-3.1055-55.176c-0.035156-0.57812-0.007812-1.1484 0.039063-1.7109 5.2734-4.3281 10.668-7.7812 16.289-9.8633 4.0547 1.6875 7.0078 5.5664 7.2734 10.242h0.003906l2.7305 48.551 41.453 22.207c5.7578 3.0859 7.9219 10.25 4.8398 16.008-2.1328 3.9805-6.2148 6.2422-10.434 6.2422-1.8828 0-3.7969-0.44922-5.5742-1.4023z"/>
 <path d="m305.95 271.02c-56.266-20.289-84.977 105.83-128.33 45.023-37.848-53.086 11.406-87.238 71.504-81.637 25.805 2.4062 54.613 15.199 56.828 36.613zm-122.98-6.2109c36.316-25.336 90.363-16.047 90.363-16.047s-57.426-25.336-90.363 16.047z"/>
 <path d="m350.06 367.77c13.219-12.809 30.141-11.316 39.172-4.6914 8.3438 6.1211 7.6992 18.926 0.98438 27.934l-5.0859-15.727c-1.6953-5.2461-6.5352-8.7734-12.051-8.7734-1.3242 0-2.6367 0.20703-3.9062 0.62109-3.2148 1.0352-5.8398 3.2695-7.3789 6.2852-1.5391 3.0117-1.8125 6.4414-0.77344 9.6641l10.531 32.582c-4.4102 6.4258-8.5586 13.27-11.66 20.301 1.8672 1.3828 3.7812 2.8711 5.7109 4.4961 6.832 5.7852 13.895 13.168 19.426 22.559 5.5234 9.3477 9.418 20.875 9.3984 33.863 0.007812 8.5195-1.6523 17.578-5.2227 26.879-2.1875 5.7188-7.6367 9.2305-13.414 9.2305-1.707 0-3.4414-0.30859-5.1328-0.95312-7.4023-2.8359-11.109-11.137-8.2734-18.543 2.4219-6.3359 3.3242-11.773 3.3281-16.613-0.019532-7.3281-2.0625-13.516-5.4336-19.309-0.65625-1.125-1.3711-2.2227-2.1289-3.3008-0.37891 4.2461-1.1914 8.6328-2.5117 13.047l-7.0938-3.5312 5.1641 9.0742c-0.8125 2.0039-1.7305 4.0039-2.7891 5.9922-5.4922 10.387-14.379 20.176-26.953 28.398-2.4258 1.5898-5.1602 2.3516-7.8555 2.3516-4.6797 0-9.2617-2.2852-12.023-6.4883-4.3477-6.6289-2.4961-15.527 4.1328-19.875 9.1445-6.0234 14.258-12.086 17.336-17.848 3.0469-5.7734 4.1641-11.496 4.1797-17.289 0.023438-6.6172-1.6172-13.238-3.6016-18.625-7.6719-4.8984-13.535-12.523-10.355-26.242 2.0703-6.4102 4.1641-12.027 6.4375-17.152l11.891-3.4414-7.3477-5.6797c5.7188-10.27 12.867-18.961 23.301-29.195z"/>
 <path d="m387.2 453.07-22.961-71.031c-1.5781-4.8828 1.0977-10.117 5.9805-11.695 4.8828-1.582 10.121 1.0977 11.699 5.9805l12.871 39.82-6.6328 5.6406 9.2305 2.3945 7.4961 23.18c1.5781 4.8828-1.1016 10.117-5.9844 11.695-0.94922 0.30859-1.9141 0.45312-2.8594 0.45312-3.9297-0.003907-7.5703-2.5078-8.8398-6.4375z"/>
 <path d="m397.7 343.01c-6.3906 14.125-0.125 30.758 13.996 37.152 14.121 6.3906 30.754 0.125 37.148-14 6.3906-14.125 0.12891-30.758-13.996-37.148-14.121-6.3945-30.754-0.125-37.148 13.996"/>
</svg>
